<?xml version="1.0" encoding="UTF-8"?><svg id="a" xmlns="http://www.w3.org/2000/svg" width="2.286in" height="1.35in" viewBox="0 0 182.849 107.967"><rect x="1.426" y="1.424" width="180" height="105.118" fill="none" stroke="#939598" stroke-width="2.848"/><polygon points="181.426 1.424 89.368 1.424 89.368 26.343 152.47 26.343 181.426 26.343 181.426 1.424" fill="#939598" stroke="#939598" stroke-width="2.848"/><rect x="1.426" y="1.424" width="86.13" height="24.919" fill="none" stroke="#939598" stroke-width="2.848"/><path d="M95.239,10.809v5.819h3.48v1.32h-5.05v-7.14h1.57Z" fill="#fff"/><path d="M101.169,10.809v7.14h-1.57v-7.14h1.57Z" fill="#fff"/><path d="M107.569,10.809v1.319h-3.45v1.65h2.99v1.22h-2.99v2.95h-1.57v-7.14h5.02Z" fill="#fff"/><path d="M107.919,12.128v-1.319h5.85v1.319h-2.14v5.82h-1.57v-5.82h-2.14Z" fill="#fff"/><path d="M116.158,10.809v7.14h-1.57v-7.14h1.57Z" fill="#fff"/><path d="M119.099,10.809l2.98,4.79h.02v-4.79h1.47v7.14h-1.57l-2.97-4.78h-.02v4.78h-1.47v-7.14h1.56Z" fill="#fff"/><path d="M129.179,17.893c-.34.143-.684.215-1.031.215-.545,0-1.037-.095-1.474-.285s-.806-.451-1.105-.785c-.3-.333-.53-.725-.689-1.175-.16-.45-.24-.935-.24-1.455,0-.533.08-1.028.24-1.485.159-.456.39-.854.689-1.194s.669-.606,1.105-.8.929-.29,1.474-.29c.367,0,.723.055,1.066.165.342.109.652.271.93.484.275.214.504.477.686.79.18.313.289.674.33,1.08h-1.5c-.094-.4-.273-.7-.541-.9-.266-.199-.59-.3-.971-.3-.354,0-.652.068-.898.205-.248.137-.447.32-.601.55-.153.23-.265.492-.335.785-.07.294-.104.597-.104.91,0,.3.034.592.104.875s.182.538.335.765c.153.228.353.409.601.545.246.137.545.205.898.205.521,0,.922-.131,1.205-.395s.449-.646.496-1.146h-1.58v-1.17h3v3.86h-1l-.16-.81c-.279.359-.59.611-.93.755Z" fill="#fff"/><path d="M136.888,10.809v2.739h2.891v-2.739h1.569v7.14h-1.569v-3.08h-2.891v3.08h-1.569v-7.14h1.569Z" fill="#fff"/><path d="M146.289,10.809l2.67,7.14h-1.63l-.54-1.59h-2.67l-.561,1.59h-1.579l2.699-7.14h1.61ZM146.379,15.188l-.899-2.62h-.021l-.93,2.62h1.85Z" fill="#fff"/><path d="M152.948,12.128h-3.529v-1.319h5.62v1.239l-3.83,4.58h3.93v1.32h-6.02v-1.24l3.829-4.58Z" fill="#fff"/><path d="M159.619,10.809l2.67,7.14h-1.63l-.54-1.59h-2.67l-.561,1.59h-1.579l2.699-7.14h1.61ZM159.709,15.188l-.899-2.62h-.021l-.93,2.62h1.85Z" fill="#fff"/><path d="M166.759,10.809c.32,0,.608.052.865.154.256.104.477.245.66.426.183.18.323.388.42.625.097.236.145.491.145.765,0,.42-.088.783-.265,1.09s-.465.54-.865.7v.02c.193.054.354.136.48.245.126.11.229.24.31.391.08.149.139.314.175.494.037.181.062.36.075.54.007.114.014.247.02.4.007.153.019.31.035.47s.044.312.08.455c.037.144.092.266.165.365h-1.57c-.086-.227-.14-.496-.159-.81-.021-.313-.051-.613-.091-.9-.053-.373-.166-.646-.34-.82-.173-.173-.456-.26-.85-.26h-1.57v2.79h-1.569v-7.14h3.85ZM166.199,14.038c.359,0,.63-.08.81-.24.18-.159.27-.42.27-.779,0-.347-.09-.599-.27-.755-.18-.157-.45-.235-.81-.235h-1.721v2.01h1.721Z" fill="#fff"/><path d="M173.208,10.809c.461,0,.889.073,1.285.22s.74.366,1.03.66c.29.293.517.66.68,1.1.164.44.245.957.245,1.55,0,.521-.066,1-.2,1.44-.133.439-.335.82-.604,1.14-.271.32-.606.572-1.01.755-.403.184-.879.275-1.426.275h-3.079v-7.14h3.079ZM173.098,16.628c.227,0,.446-.036.66-.109.213-.073.403-.195.569-.365.167-.17.301-.392.4-.665s.15-.606.15-1c0-.36-.035-.685-.105-.975s-.185-.539-.345-.745c-.16-.207-.372-.365-.635-.476-.264-.109-.589-.165-.976-.165h-1.12v4.5h1.4Z" fill="#fff"/><path d="M34.134,11.929c-.104-.167-.233-.313-.389-.439-.156-.126-.332-.224-.528-.294s-.402-.105-.617-.105c-.393,0-.726.076-1,.228-.274.152-.497.355-.667.611-.171.255-.294.546-.373.872-.078.326-.117.663-.117,1.011,0,.334.039.658.117.973.078.314.202.598.373.85.17.252.392.454.667.605.274.152.607.229,1,.229.533,0,.95-.163,1.25-.489s.483-.756.55-1.289h1.689c-.044.496-.159.944-.344,1.345-.186.399-.43.74-.733,1.022-.304.281-.66.496-1.067.644-.407.148-.855.223-1.344.223-.607,0-1.154-.105-1.639-.316-.485-.211-.894-.502-1.228-.872-.333-.371-.589-.806-.767-1.306s-.267-1.039-.267-1.617c0-.592.089-1.143.267-1.649.178-.508.433-.95.767-1.328s.743-.674,1.228-.889c.485-.215,1.032-.322,1.639-.322.437,0,.85.062,1.239.188.389.126.737.31,1.044.55.308.241.561.539.761.895s.326.764.378,1.223h-1.689c-.03-.2-.097-.384-.2-.55Z" fill="#221f1f"/><path d="M41.134,9.811l2.967,7.934h-1.811l-.6-1.767h-2.967l-.622,1.767h-1.756l3-7.934h1.789ZM41.234,14.679l-1-2.911h-.022l-1.033,2.911h2.056Z" fill="#221f1f"/><path d="M50.523,17.14c-.6.522-1.43.783-2.489.783-1.074,0-1.906-.259-2.495-.777s-.883-1.318-.883-2.4v-4.934h1.744v4.934c0,.215.019.426.056.634.037.207.115.391.233.55s.283.289.495.389c.211.1.494.15.85.15.622,0,1.052-.14,1.289-.417.237-.278.355-.713.355-1.306v-4.934h1.745v4.934c0,1.074-.3,1.872-.9,2.395Z" fill="#221f1f"/><path d="M52.201,11.278v-1.467h6.5v1.467h-2.378v6.467h-1.744v-6.467h-2.378Z" fill="#221f1f"/><path d="M61.256,9.811v7.934h-1.745v-7.934h1.745Z" fill="#221f1f"/><path d="M62.612,12.162c.178-.508.433-.95.767-1.328s.743-.674,1.228-.889c.485-.215,1.032-.322,1.639-.322.615,0,1.163.107,1.645.322.481.215.889.511,1.222.889s.589.82.767,1.328c.178.507.267,1.058.267,1.649,0,.578-.089,1.117-.267,1.617s-.433.935-.767,1.306c-.333.37-.741.661-1.222.872-.482.211-1.03.316-1.645.316-.607,0-1.154-.105-1.639-.316-.485-.211-.894-.502-1.228-.872-.333-.371-.589-.806-.767-1.306s-.267-1.039-.267-1.617c0-.592.089-1.143.267-1.649ZM64.206,14.784c.078.314.202.598.373.85.17.252.392.454.667.605.274.152.607.229,1,.229s.726-.076,1-.229c.274-.151.496-.354.667-.605s.294-.535.373-.85c.078-.314.116-.639.116-.973,0-.348-.039-.685-.116-1.011-.078-.326-.202-.617-.373-.872-.17-.256-.393-.459-.667-.611-.274-.151-.607-.228-1-.228s-.726.076-1,.228c-.274.152-.497.355-.667.611-.171.255-.294.546-.373.872-.078.326-.117.663-.117,1.011,0,.334.039.658.117.973Z" fill="#221f1f"/><path d="M72.967,9.811l3.311,5.322h.022v-5.322h1.633v7.934h-1.745l-3.3-5.312h-.022v5.312h-1.633v-7.934h1.733Z" fill="#221f1f"/><path d="M10.554,21.291c-.768,0-1.388-.621-1.388-1.386,0-.323.166-.594.292-.853l6.531-13.095c.252-.325.647-.533,1.093-.533s.844.209,1.095.533l6.529,13.095c.149.259.289.529.289.853,0,.765-.62,1.386-1.387,1.386h-13.055Z" fill="#f79320" fill-rule="evenodd"/><path d="M18.065,18.246c0,.543-.44.982-.983.982s-.983-.439-.983-.982.44-.983.983-.983.983.439.983.983Z" fill="#fff" fill-rule="evenodd"/><path d="M17.082,10.033c-.504,0-.912.409-.912.91l.302,4.919c0,.337.274.606.61.606.334,0,.605-.269.605-.606l.306-4.919c0-.501-.408-.91-.912-.91Z" fill="#fff" fill-rule="evenodd"/><path d="M28.676,92.806h-.879v-5.602c-.211.202-.489.404-.833.605-.343.202-.652.354-.925.455v-.851c.492-.23.921-.511,1.289-.84.368-.328.628-.647.781-.957h.566v7.188Z" fill="#231f20"/><path d="M35.387,87.4l-.874.068c-.078-.345-.189-.596-.332-.752-.238-.25-.531-.376-.879-.376-.28,0-.526.078-.737.234-.277.202-.495.497-.654.884-.16.388-.243.939-.249,1.656.211-.322.47-.562.776-.718s.626-.234.962-.234c.586,0,1.085.215,1.497.646s.618.989.618,1.673c0,.449-.097.866-.291,1.252s-.46.682-.798.887-.723.308-1.152.308c-.732,0-1.33-.27-1.792-.809-.462-.538-.693-1.426-.693-2.663,0-1.384.255-2.39.767-3.019.446-.547,1.046-.82,1.802-.82.563,0,1.024.158,1.384.474.36.316.575.752.647,1.309ZM31.798,90.487c0,.303.064.593.193.869s.309.487.54.632c.231.146.474.218.728.218.371,0,.69-.149.957-.449s.4-.706.4-1.221c0-.495-.132-.885-.396-1.17s-.596-.427-.996-.427c-.397,0-.734.142-1.011.427s-.415.658-.415,1.121Z" fill="#231f20"/><path d="M40.907,91.961v.845h-4.731c-.006-.212.028-.415.103-.61.121-.322.313-.64.579-.952s.648-.674,1.15-1.084c.778-.639,1.304-1.144,1.577-1.517s.41-.726.41-1.058c0-.348-.125-.642-.374-.881s-.574-.359-.974-.359c-.423,0-.762.127-1.016.381s-.382.605-.386,1.055l-.903-.093c.062-.674.294-1.187.698-1.54s.946-.53,1.626-.53c.687,0,1.23.19,1.631.571s.601.854.601,1.416c0,.287-.059.568-.176.846-.117.276-.312.567-.583.874-.272.306-.724.726-1.355,1.26-.527.442-.866.743-1.016.9-.15.158-.273.317-.371.477h3.511Z" fill="#231f20"/><path d="M44.653,92.806v-7.159h.879v7.159h-.879Z" fill="#231f20"/><path d="M47.604,92.806h-.815v-7.159h.879v2.555c.371-.466.845-.699,1.421-.699.319,0,.621.064.906.193s.519.31.703.542.328.514.432.843c.104.328.156.68.156,1.055,0,.889-.22,1.575-.659,2.061s-.967.728-1.582.728c-.612,0-1.092-.256-1.44-.767v.649ZM47.595,90.174c0,.622.084,1.071.254,1.348.277.452.651.679,1.123.679.384,0,.716-.167.996-.501.28-.333.42-.83.42-1.491,0-.678-.134-1.177-.403-1.499s-.593-.483-.974-.483c-.384,0-.716.166-.996.5s-.42.816-.42,1.448Z" fill="#231f20"/><path d="M56.613,94.911c-.485-.612-.895-1.328-1.23-2.148s-.503-1.67-.503-2.549c0-.775.125-1.518.376-2.227.293-.824.746-1.645,1.357-2.462h.63c-.394.678-.654,1.161-.781,1.45-.199.449-.355.918-.469,1.407-.14.608-.21,1.221-.21,1.836,0,1.565.487,3.13,1.46,4.692h-.63Z" fill="#231f20"/><path d="M57.978,86.584v-.845h4.634v.684c-.456.485-.907,1.13-1.355,1.935-.448.804-.793,1.631-1.038,2.48-.176.599-.288,1.255-.337,1.968h-.903c.01-.563.121-1.243.332-2.041s.515-1.567.911-2.308.816-1.365,1.262-1.873h-3.506Z" fill="#231f20"/><path d="M63.386,90.916l.879-.117c.101.498.272.856.515,1.076s.538.33.886.33c.414,0,.763-.144,1.047-.43s.427-.642.427-1.064c0-.404-.132-.736-.396-.999-.264-.262-.599-.393-1.006-.393-.166,0-.373.032-.62.098l.098-.771c.059.006.106.01.142.01.375,0,.711-.098,1.011-.293s.449-.497.449-.904c0-.322-.109-.589-.327-.801-.218-.211-.5-.317-.845-.317-.342,0-.626.107-.854.322s-.375.537-.439.967l-.879-.156c.107-.589.352-1.045.732-1.369s.854-.486,1.421-.486c.391,0,.75.084,1.079.252s.58.396.754.686c.174.29.261.598.261.923,0,.31-.083.592-.249.846s-.412.455-.737.605c.423.098.752.3.986.607s.352.692.352,1.155c0,.625-.228,1.154-.684,1.589s-1.032.652-1.729.652c-.628,0-1.15-.188-1.565-.562s-.652-.859-.71-1.455Z" fill="#231f20"/><path d="M71.77,92.806v-7.159h.879v4.083l2.08-2.11h1.138l-1.982,1.925,2.183,3.262h-1.084l-1.714-2.651-.62.596v2.056h-.879Z" fill="#231f20"/><path d="M76.504,93.236l.854.127c.036.264.135.456.298.576.218.163.516.244.894.244.407,0,.721-.081.942-.244s.371-.391.449-.684c.045-.179.067-.555.063-1.128-.384.452-.863.679-1.436.679-.713,0-1.265-.257-1.655-.771s-.586-1.131-.586-1.851c0-.495.089-.952.269-1.37s.438-.741.779-.97c.34-.228.74-.342,1.199-.342.612,0,1.117.248,1.514.743v-.626h.811v4.483c0,.808-.082,1.38-.247,1.717s-.425.603-.781.798-.795.293-1.316.293c-.619,0-1.118-.139-1.499-.417s-.565-.698-.552-1.258ZM77.231,90.121c0,.681.135,1.177.405,1.489s.609.469,1.016.469c.404,0,.742-.155,1.016-.467.273-.311.41-.798.41-1.462,0-.635-.141-1.113-.422-1.436s-.621-.483-1.018-.483c-.391,0-.723.158-.996.476s-.41.789-.41,1.414Z" fill="#231f20"/><path d="M82.703,94.911h-.63c.973-1.562,1.46-3.127,1.46-4.692,0-.612-.07-1.22-.21-1.821-.111-.489-.265-.958-.464-1.407-.127-.293-.389-.781-.786-1.465h.63c.612.817,1.064,1.638,1.357,2.462.25.709.376,1.451.376,2.227,0,.879-.168,1.729-.505,2.549s-.746,1.536-1.228,2.148Z" fill="#231f20"/><polyline points="52.803 80.849 80.269 64.784 80.269 51.804" fill="#fff" stroke="#221f1f" stroke-linecap="round" stroke-linejoin="round" stroke-width=".851"/><polyline points="28.368 53.576 55.88 39.268 80.254 51.804 52.753 67.656" fill="#fff" stroke="#221f1f" stroke-linecap="round" stroke-linejoin="round" stroke-width=".851"/><polygon points="52.749 80.822 52.749 67.661 28.371 53.58 28.334 66.431 52.749 80.822" fill="#fff" stroke="#221f1f" stroke-linecap="round" stroke-linejoin="round" stroke-width=".851"/><path d="M115.091,46.569c0,2.145,1.74,3.882,3.883,3.882s3.882-1.738,3.882-3.882-1.736-3.885-3.882-3.885-3.883,1.74-3.883,3.885Z" fill="#231f20"/><path d="M119.825,52.676l-3.965-2.75s-1.942-.727-2.589,1.378l-5.42,10.84s-.242,2.023,1.78,3.803l7.444,8.576s1.05,1.05.159,3.234l-2.91,6.553s-1.215,2.184.161,3.641l1.537.891s1.455,0,2.184-1.457l4.045-10.113s.812-3.48-.808-5.339l-5.341-6.069s-.889-1.537-.242-2.832l2.265-3.557.85-.164s-.364,2.589,1.253,3.56l7.28,5.987s1.214.082,1.617-.566l.65-.809s.482-1.375-.65-2.428l-6.269-5.58-3.032-6.799Z" fill="#231f20"/><path d="M151.173,46.527c0,2.145-1.74,3.885-3.882,3.885s-3.883-1.74-3.883-3.885,1.736-3.882,3.883-3.882,3.882,1.738,3.882,3.882Z" fill="#231f20"/><path d="M144.014,51.382h5.503s2.182.487,2.261,2.346c.082,1.862,0,5.908,0,5.908l.037,8.576s-.762.767-1.41,1.112c0,0-.567.263-.728.99l-.567,8.899.082,8.171s-.485,1.941-1.901,2.023h-.874s-1.432-.648-1.755-2.671v-11.892s-2.184-2.589-2.914-4.451c-.727-1.862-.727-11.488-.727-11.488,0,0-.081-1.053-.971-.323l-5.018,7.037s-.949.427-1.496.243c0,0-1.154-.849-.789-2.306l8.618-11.043s1.293-1.474,2.648-1.132Z" fill="#231f20"/><polygon points="135.934 78.488 153.201 75.666 153.201 61.87 135.934 59.048 118.67 61.87 118.67 75.666 135.934 78.488" fill="#fff"/><line x1="135.934" y1="64.692" x2="135.934" y2="78.488" fill="none" stroke="#231f20" stroke-width="1.271"/><line x1="118.67" y1="61.87" x2="118.67" y2="75.666" fill="none" stroke="#231f20" stroke-width="1.271"/><line x1="153.201" y1="61.87" x2="153.201" y2="75.666" fill="none" stroke="#231f20" stroke-width="1.271"/><line x1="118.67" y1="61.87" x2="135.934" y2="64.692" fill="none" stroke="#231f20" stroke-width="1.271"/><line x1="153.201" y1="61.87" x2="135.934" y2="64.692" fill="none" stroke="#231f20" stroke-width="1.271"/><line x1="118.67" y1="61.87" x2="135.934" y2="59.048" fill="none" stroke="#231f20" stroke-width="1.271"/><line x1="153.201" y1="61.87" x2="135.934" y2="59.048" fill="none" stroke="#231f20" stroke-width="1.271"/><line x1="118.67" y1="75.666" x2="135.934" y2="78.488" fill="none" stroke="#231f20" stroke-width="1.271"/><line x1="153.201" y1="75.666" x2="135.934" y2="78.488" fill="none" stroke="#231f20" stroke-width="1.271"/><path d="M159.262,46.569c0,2.145-1.736,3.882-3.882,3.882s-3.882-1.738-3.882-3.882,1.735-3.885,3.882-3.885,3.882,1.74,3.882,3.885Z" fill="#231f20"/><path d="M154.53,52.676l3.965-2.75s1.941-.727,2.589,1.378l5.419,10.84s.243,2.023-1.779,3.803l-7.445,8.576s-1.047,1.05-.159,3.234l2.912,6.553s1.214,2.184-.161,3.641l-1.537.891s-1.457,0-2.184-1.457l-4.046-10.113s-.81-3.48.809-5.339l5.339-6.069s.89-1.537.243-2.832l-2.266-3.557-.849-.164s.362,2.589-1.253,3.56l-7.282,5.987s-1.214.082-1.617-.566l-.649-.809s-.483-1.375.649-2.428l6.27-5.58,3.032-6.799Z" fill="#231f20"/><path d="M124.097,46.527c0,2.145,1.738,3.885,3.882,3.885s3.882-1.74,3.882-3.885-1.736-3.882-3.882-3.882-3.882,1.738-3.882,3.882Z" fill="#231f20"/><path d="M131.255,51.382h-5.501s-2.184.487-2.265,2.346c-.082,1.862,0,5.908,0,5.908l-.036,8.576s.765.767,1.41,1.112c0,0,.567.263.728.99l.567,8.899-.079,8.171s.483,1.941,1.899,2.023h.872s1.435-.648,1.759-2.671v-11.892s2.182-2.589,2.912-4.451c.727-1.862.727-11.488.727-11.488,0,0,.082-1.053.971-.323l5.018,7.037s.951.427,1.498.243c0,0,1.149-.849.787-2.306l-8.616-11.043s-1.296-1.474-2.651-1.132Z" fill="#231f20"/><line x1="28.391" y1="60.411" x2="52.563" y2="74.389" fill="#fff" stroke="#221f1f" stroke-linecap="round" stroke-linejoin="round" stroke-width=".851"/></svg>